<?xml version="1.0" encoding="UTF-8"?>
<!DOCTYPE svg PUBLIC "-//W3C//DTD SVG 1.1//EN" "http://www.w3.org/Graphics/SVG/1.1/DTD/svg11.dtd">
<!-- Creator: CorelDRAW -->
<svg xmlns="http://www.w3.org/2000/svg" xml:space="preserve" width="210mm" height="297mm" version="1.1" style="shape-rendering:geometricPrecision; text-rendering:geometricPrecision; image-rendering:optimizeQuality; fill-rule:evenodd; clip-rule:evenodd"
viewBox="0 0 21000 29700"
 xmlns:xlink="http://www.w3.org/1999/xlink"
 xmlns:xodm="http://www.corel.com/coreldraw/odm/2003">
 <defs>
  <style type="text/css">
   <![CDATA[
    .fil1 {fill:#313131}
    .fil0 {fill:#323232}
   ]]>
  </style>
 </defs>
 <g id="Camada_x0020_1">
  <metadata id="CorelCorpID_0Corel-Layer"/>
  <path class="fil0" d="M8619.22 10048.87c-84.99,24.6 -147.42,-30.85 -175.66,40.5 -45.3,114.41 -33.64,115.18 -101.59,115.17l-232.27 -2.28c-3.71,-18.9 135.02,-399.81 164.88,-413.4 18.85,-8.58 317.1,-7 343.52,0.8 10.31,68.23 8.39,194.04 1.12,259.21zm-660.73 655.74c-47.26,21.91 -60.01,-18.59 -59.48,95.62 1.09,233.86 -20.46,228.22 90.31,227.64 45.21,-0.24 117.45,4.32 159.07,-2.51 64.89,-422.07 502.65,-471 701.3,-272.42 73.87,73.84 111.66,136.96 132.79,273.38l1134.07 1.36c17.73,-116.39 32.62,-147.22 92.22,-231.67 20.16,-28.56 35.13,-30.14 56.85,-65.05 -214.28,-5.65 -435.52,-0.58 -650.58,-0.58 -215.21,0 -430.43,0.11 -645.65,0.06 -60.68,-0.01 -81.16,-5.61 -128.24,-28.84 -137.33,-67.74 -109.06,-248.5 -109.06,-373.53 0,-96.4 6.36,-592.48 -2.81,-643.94 -42.99,-7.01 -378.49,-3.72 -447.25,-3.17 -87.02,0.7 -101.52,30.21 -127.83,95.05 -39.67,97.78 -182.37,427.95 -191.54,484.04 -19.47,119.16 7.3,313.14 -4.17,444.56z"/>
  <path class="fil1" d="M8953.43 10510.75c-9.6,-33.03 -11.25,-1070.89 -2.15,-1153.04l2311.17 2.56 -1.8 1151.5 -2307.22 -1.02zm-32.2 -1255.8c-76.92,20.36 -79.17,77.64 -79.08,164.63l0 974.24c0,83.92 -14.71,162.79 42.24,204.91 48.14,35.61 155.78,21.54 222.62,21.54l1703.41 0c81.25,0 434,10.02 484.77,-4.34 28.31,-8.01 51.19,-27.27 65.33,-54.29 22.59,-43.14 12.24,-295.79 12.24,-353.11l0 -729.18c0,-84.77 14.33,-160.89 -40.88,-204.99 -46.69,-37.3 -157.56,-23.48 -222.62,-23.48l-1703.41 0c-86,0 -428.53,-10.78 -484.62,4.07z"/>
  <path class="fil0" d="M8685.16 11087.13c-47.54,161.5 -287.08,91.82 -237.13,-67.93 16.39,-52.42 73.51,-102.8 151.32,-80.8 51.95,14.7 106.99,76.77 85.81,148.73zm-423.63 11.96c18.7,160.63 167.28,280.36 341.81,262.38 157.06,-16.17 292.46,-165.93 266.35,-346.25 -22.83,-157.66 -165.23,-288.31 -347.53,-262.66 -155.17,21.84 -282.17,161.58 -260.63,346.53z"/>
  <path class="fil0" d="M10511.46 10935.26c73.91,-14.53 130.16,39.68 142.14,93.01 17.22,76.66 -36.01,137.7 -94.48,149.09 -161.85,31.54 -210.16,-210.14 -47.66,-242.1zm-284.03 151.87c16.56,159.84 153.69,291.97 338.12,274.76 153.74,-14.35 290.88,-155.37 273.66,-334.16 -15.54,-161.25 -158.63,-294.81 -339.56,-276.34 -155.41,15.87 -290.58,158.62 -272.22,335.74z"/>
  <path class="fil0" d="M10799.89 10730.87c18.64,38.69 53.53,40.65 100.63,128.81 34.82,65.15 30.29,92.65 50.56,164.61 123.79,8.81 110.84,-0.73 140.79,-98 19.52,-63.4 41.26,-127.72 58.1,-195.97l-350.08 0.55z"/>
 </g>
</svg>
