<?xml version="1.0" encoding="UTF-8"?>
<!DOCTYPE svg PUBLIC "-//W3C//DTD SVG 1.1//EN" "http://www.w3.org/Graphics/SVG/1.1/DTD/svg11.dtd">
<!-- Creator: CorelDRAW -->
<svg xmlns="http://www.w3.org/2000/svg" xml:space="preserve" width="210mm" height="297mm" version="1.1" style="shape-rendering:geometricPrecision; text-rendering:geometricPrecision; image-rendering:optimizeQuality; fill-rule:evenodd; clip-rule:evenodd"
viewBox="0 0 21000 29700"
 xmlns:xlink="http://www.w3.org/1999/xlink"
 xmlns:xodm="http://www.corel.com/coreldraw/odm/2003">
 <defs>
  <style type="text/css">
   <![CDATA[
    .fil0 {fill:#6B809B}
   ]]>
  </style>
 </defs>
 <g id="Camada_x0020_1">
  <metadata id="CorelCorpID_0Corel-Layer"/>
  <path class="fil0" d="M15875.34 10775.15c144.17,99.58 219.24,-18.78 317.36,169.51l-42.32 144.58c391.11,-16.87 228.94,-258.13 250.92,-407.88l114.94 -38.7c-31.69,-30.62 -25.74,-22.44 -54.29,-49.5 -17.36,-16.46 -35.11,-39.35 -55.35,-62.17l27.23 -144.23c107.59,-76.53 139.57,-132.72 288.13,-109.73l25.54 127.84c68.25,16.84 334.17,70.86 388.97,70.61 90.11,-0.46 377.4,-83.68 580.27,8.21 299.35,135.56 66.89,26.09 334.43,50.01 101.71,9.12 118.78,15.43 219.59,-10.67l-67.96 -201.61 -47.14 -119.69 -113.12 3.91 22.18 -57.74 40.86 -28.64c6.73,-233.56 -18,-182.48 -66.57,-369.22 -53.89,-207.27 -126.18,-630.97 -321.49,-822.88 -111.67,-109.77 -454.09,-166.64 -613.28,-181.51 -97.03,-9.05 -192.95,52.8 -322.89,57.84 -142.68,5.53 -206.79,-32.78 -355.06,-19.24 -0.61,0.91 -14.55,26 -31.16,55.13 -263.11,-134.05 -142.32,19.04 -386.29,-234.69l-204.07 -0.91c-148.47,-11.63 -94.09,14.59 -221.7,-115.19 -512.86,107.76 -562.94,236.63 -745.74,690.91 -36.82,91.53 -76.14,153.37 -140.8,217.33 -168.28,166.5 -45.49,275.81 -216.78,437.98 -99.41,94.11 -75.36,142.74 -163.88,210.02 -153.28,55.48 -77.72,-152.08 -244.32,121.63 -73.69,121.04 -78.5,67.02 -62.95,224.41 75.52,-90.34 9.7,-27.65 82.38,-73.65 68.12,91.56 59.49,80.53 174.16,146.58 83.97,48.4 139.06,36.34 258.78,74.17 128.97,-164.69 45.29,-37.6 209.4,-146.62 329.2,-218.68 45.59,-309.92 542.29,-381.53 175.3,-25.29 358.45,-151.02 395.05,-20.44 17.29,61.69 7.92,46.37 8.37,100.84l-243.13 260.62c-36.24,74.23 -14.29,150.24 -64.43,209.83 -88.72,105.4 -78.08,-33.37 -121.01,195.95l283.7 18.4 59.87 145.52c117.95,-58.03 182.12,-63.59 281.31,-145.39z"/>
  <path class="fil0" d="M16136.9 10921.35c-135.72,-131.07 -141.54,2.04 -249.24,-95.99 -40.31,32.75 -267.63,123.83 -311.99,133.59l-71.9 -147.01 -260.52 -35.66c-35.05,-107.82 -32.43,-142.19 47.84,-205.91 122.18,-96.9 52.54,-65.15 99.75,-204.82 44.68,-132.2 66.34,-83.83 133.49,-164.27 41.29,-49.43 104.07,-140.87 137.73,-195.12 -166.96,-86.64 -161.2,16.07 -311.7,38.25 -566.76,83.54 -229.39,155.25 -554.22,355.93 -127.9,79.02 -57.19,61.3 -192.46,125.09 -39.32,18.55 -105.21,102.52 -319.01,3.75 -55.7,-25.77 -136.73,-80.76 -190.23,-108.6 -203.04,183.41 -107.66,402.87 -133.88,482.28 -74.92,104.17 -99.52,76.43 -145.72,194.24 107.69,159.55 42.26,9.83 95.86,211.38 24.64,92.59 116.62,87.19 148.59,167.34 22.02,147.66 -104,368.44 -185.48,425.12 79.28,50.5 40.29,38.73 94.6,97.09 4.24,4.56 10.15,10.28 14.32,14.68 3.92,4.17 9.99,9.7 13.74,13.61 11.26,11.89 32.72,36.76 45.56,50.17 93.56,-8.53 43.29,-6.91 133.04,-34.27 92.85,-28.32 98.06,-19.36 131.72,-11.51l54.25 149.11c53.18,-23.76 118.94,-67.66 164.88,-70.83 35.66,-2.46 -20.62,15 32.92,2.71l186.25 -34.14c53.41,-97.51 178.82,-185.06 257.45,-239.8 186.03,-129.58 127.81,10.06 280.76,-248.04l110.09 -30.39c4.62,-2.33 10.86,-7.08 15.19,-9.7 6.57,-3.97 20.79,-19.1 27.23,-23.34 163.01,-107.01 184.06,4.43 320.52,72.07 119.6,59.26 113.49,16.23 127.52,181.79l-242.94 113.19 51.15 244c-94.02,86.19 -122.21,101.36 -169.12,219.14 108.27,-19.14 46.65,-35.34 146.07,-6.24 166.73,206.43 -123.86,135.21 238.63,384.67 111.25,-58.07 127.39,-62.37 197.28,-80.63 140.87,-36.86 54.58,-72.78 169.77,-139.22 -22.82,-141.9 -32.55,-104.75 78.08,-235.33l162.98 -7.25 34.11 -125.21c352.44,0.8 195.7,-103.07 287.74,21.21l78.15 -75.79c112.83,68.8 37.05,76.01 203.58,53.02 70.39,-67.86 33.95,26.71 36.63,-104.71 8.86,2.26 19.47,7.01 25.9,8.82 159.78,44.81 147.14,-35.56 387.36,-97.15 20.2,-88.04 37.76,-177.82 71.74,-242.03 94.99,-25.8 56.32,-15.78 164.53,-2.68 40.28,-72.65 51.66,-88.14 151.08,-87.3 438.92,3.72 141.12,132.2 502.07,197.09l24.73 -445.84 -66.64 -109.96c-91.85,108.38 -52.6,44.56 -99.41,30.04l78.24 -152.28c-18.72,-137.15 -39.8,-61.23 -74.72,-187.91 -21.69,-78.66 -14.09,-124.86 -34.56,-197.99 -49.89,-93.69 -29.26,-78.82 -18.3,-199.03 -176.88,86.1 -155.48,-18.04 -359.19,24.35 -91.4,19.01 -224.8,-62.43 -354.22,-88.75 -248.07,-50.37 -204.39,80.25 -832.29,-51.53l-35.5 -135.57c-373.06,73.33 -155.38,278.89 -146.97,409.47l-111.22 -3.94c9.63,240.54 109.7,100.93 -39.51,379.75 -166.34,4.27 -138.34,51.22 -226.09,50.05 -94.6,-143.03 1.62,-72.77 -26.09,-217.26z"/>
  <path class="fil0" d="M15727.5 11631.79c-105.69,-52.15 -51.93,-67.96 -159.75,-109.35 -215.32,21.44 -47.43,131.2 -258.45,95.51 -97.9,236.3 -113.42,137.31 -275.17,248.65 -82.35,56.68 -27.35,54.58 -162.66,118.62 -96.57,45.72 -58.19,49.12 -130.13,138.83l-113.03 -3.52 -32.42 80.92c-137.51,-75.2 -139.03,69.64 -276.27,4.72l-31.78 -150.85c-195.7,65.34 -262.98,126.31 -412.54,-90.72l-190.36 93.6c-148.27,123.27 -55.71,160.49 -286.62,178.75 -61.49,-130.58 -8.92,-138.02 -143.58,-189.62 -212.67,-81.5 -33.04,-101.52 -381.69,-277.23 -96.54,-48.66 -105.56,-108.6 -193.47,-136.21 -263.43,-82.74 -379.34,65.21 -553.7,59.97 -185.8,-5.56 -434.94,-83.06 -608.37,4.53 -31.03,101.42 15.59,103.75 56.55,201.06 47.33,112.38 -3.94,96.25 -17.65,203.46l148.14 68.35c-51.47,453.08 -79.7,345.55 -327.35,642.02 -68.48,81.99 -82.06,35.31 -136.18,137.44 -247.91,3.04 -65.24,10.89 -246.91,133.33 -24.57,16.55 -229.35,212.57 -235.66,223.92 67.28,-24.83 135.27,-50.85 229.07,-39.67l57.42 93.89c100.51,-21.63 136.24,32.01 222.82,88.3 4.72,67.86 -4.3,126.51 5.17,191.98 16.43,113.32 34.11,42.51 37.99,176.88l187.26 88.2 -3.56 239.05 104.11 44.42c94.73,-92.92 122.31,-132.55 259.26,-156.87 48.2,-147.07 45.94,-264.27 137.18,-367.76 167.12,5.43 121.63,80.41 285.12,-6.01 266.76,-140.96 -129.61,-196.54 328.45,-333.4l22.47 -153.57c47.01,-14.29 117.65,-23.5 182.38,-51.34 250.98,-108.08 188.68,-252.79 450.33,42.74 131.69,148.76 423.99,125.25 525.96,182.32l136.24 104.17c91.66,-105.6 138.99,-112.1 246.14,-22.44 24.31,138.08 -14.03,64.79 -13.19,172.26 79.04,18.65 234.72,-77.66 234.59,93.08 -0.1,90.23 -12.09,211.25 66.86,300.03 144.58,-199.19 21.59,-59.59 204.39,-166.9 39.48,-23.21 141.81,-133.65 202.59,-180.11 31.62,-118.53 -18.17,-93.99 78.27,-193.92 79.73,35.08 103.85,70.38 116.26,164.72 226.28,-65.56 140.8,-141.86 489.75,213.52 133.72,136.17 211.93,128.12 361.52,212.31 4.49,2.52 13.32,7.34 20.21,10.54l63.72 -106.62c140.15,16.36 220.56,0.38 348.43,50.4 113.38,-75.82 105.62,-78.21 240.31,-113.09 136.8,-35.47 99.87,-73.69 198.87,-155.84 311.96,-258.87 28.74,-192.69 494.27,-274.03l95.06 80.08c465.85,-233.1 131.52,-46.17 694.94,-36.15 29.3,-225.83 341.13,-834.58 271.97,-1011.59 82.93,-44.59 -11.44,15.84 70.87,-23.15 36.05,-146.69 48.82,-100.19 5.21,-248.85 -61.05,-22.57 -77.34,-71.42 -65.77,-140.87l90.66 -153.08c-46.3,-62.14 -66.92,-30.97 -136.31,-77.63 -188.55,-126.8 94.86,-115.19 -405.23,-195.05 -155.32,163.01 -81.54,77.43 -249.82,91.4l-44.55 231.2c-95.25,54.76 -150.37,74.45 -258.68,106.01 -93.89,27.38 -130.58,76.53 -189.52,134.69 -251.96,-7.11 -178.76,4.91 -233.46,-60.3 -77.79,67.9 -200.62,44.23 -316.49,20.56 -142.13,214.1 -71.22,81.87 -247.46,170 -14.22,7.11 -28.61,22.28 -70.32,39.9l32.75 138.79c-127.77,125.15 -255.6,207.89 -426.96,251.7 -197.6,-102.69 -223.37,-173.68 -226.99,-422.63 -4.53,2.59 -12.19,1.23 -13.9,7.18 -11,37.53 -178.73,57.87 -211.67,60.75 18.3,-87.2 -7.24,-68.61 74.62,-45.85l-53.77 -28.81c85.97,-115.13 83.12,-163.75 191.66,-230.74 -47.24,-113.16 -69.16,-118.88 -49.15,-251.53 95.09,-41.71 160.01,-40.61 233.63,-112.42 -25.16,-139.41 -9.38,-65.95 -112.93,-117.03z"/>
  <path class="fil0" d="M15954.78 14113.46c-96.38,-34.53 -95.34,-56.45 -222.89,-106.79 -174.33,-68.8 -240.28,-232.58 -513.38,-415.67 -147.13,36.24 -11.15,52.95 -163.2,50.88 -101,-143.58 19.27,-96.6 -126.45,-144.16 3.3,376.75 -413.19,304.95 -460.42,597.47l787.45 410.73c406.33,105.73 291.17,173.65 604.61,296.77 122.93,48.27 141.52,28.58 131.46,200.77 130.2,53.77 51.79,51.5 161.91,117.39 98.42,58.91 97.61,24.38 216.59,34.24 80.24,182.7 28.19,134.4 250.56,271.52 54.8,-248.56 155.03,-276.66 332.33,-433.46 105.49,-93.31 34.07,-80.99 127.96,-164.76l110.48 -118.72 25.31 -79.73 -63.14 -136.79 -15.39 -23.86 -56 -55.12 36.99 -27.84 41 23.54 28.54 50.99 16.27 67.24c41.09,-18.98 36.85,-7.79 70.64,-31.52l17.81 -83.7 -6.72 -21.5 4.49 -32.11 32.53 32.95c65.76,90.62 8.08,39.76 96.63,67.7 2.33,-108.99 85.39,-107.5 164.41,-232.56 81.79,-129.42 72.42,-118.72 176.49,-207.24 60.75,-51.69 260.16,-386.67 279.43,-475.42 -121.46,-1.2 -253.57,-20.66 -362.49,-61.53 -132.75,-49.82 -175.52,23.64 -293.59,89.4 -202.91,-46.98 -73.2,-88.91 -304.04,-29.75 -192.86,49.44 -74.72,76.63 -220.37,180.38 -156.38,111.44 -102.84,140.54 -220.17,190.17 -104.75,44.29 -153.25,-3.2 -261.62,118.17 -134.92,-8.44 -207.44,-38.74 -369.28,-30.91l-54.74 112.83z"/>
  <path class="fil0" d="M15604.9 14709.83c-139.03,-117.52 -229.78,-157.83 -413.09,-164.4 -142.16,-168.83 -147.08,-75.17 -271.68,-145.32 -100.51,-56.58 -150.89,-177.4 -260.16,-13.07 8.73,30.85 35.04,43.52 34.53,108.8 -1.52,204.26 -2.53,154.21 170.44,376.42 68.93,88.53 167.25,132.27 82.74,438.96l-102.39 165.01c53.57,73.52 61.36,50.05 70.87,101.49 12.83,69.41 18.88,32.04 39.05,117.49 -299.54,360.84 -494.98,-144.61 -548.88,274.36 47.88,69.35 124.77,135.56 167.28,213.09 91.01,165.92 -43.87,71.23 148.69,225.93l-16.88 206.82 147.92 11.83c47.56,90.62 74.94,178.66 196.83,169.25l303.03 -50.63 12.29 -19.78c2.71,-144.62 -21.63,40.73 -61.79,-127.26 107.73,-49.88 18.69,44.52 84.45,-40.77l25.77 -39.57 32.3 -24.76 -5.98 -135.24c108.95,1.06 140.6,17.65 88.65,127.02l70.58 -66.92c80.6,-64.76 35.3,-1.68 64.33,-94.12 -57.93,-93.01 -79.34,-44.03 -133.62,-172.9 128.1,38.8 68.41,40.54 177.82,95.05 127.35,-123.89 173.13,-345.91 378.72,-479.82 86.45,-56.32 153.57,-123.31 237.21,-172.48 122.8,-72.13 204.88,-30.39 266.12,-137.51l-181.57 -66.02c-17.49,-276.65 -117.62,-168.86 -207.37,-200.74 -16.62,-5.88 -95.05,-55.54 -119.66,-75.62 -126.12,-103 -90.3,-79.21 -144.32,-239.93l-332.23 -164.66z"/>
  <path class="fil0" d="M13456.36 19057.35c6.04,-33.4 -13.42,-20.34 0,0zm1478.22 -3919.88c19.31,-265.46 -94.89,-105.94 -271.8,-500.99 -77.66,-173.49 17.75,-4.63 -29.71,-189.04 -1.65,-6.34 -4.79,-15.49 -6.34,-21.89 -16.97,-69.64 -7.18,-57.16 65.08,-171.45 -90.88,-81.15 -175.1,-85.58 -190.17,-84.71 -202.61,-225.05 -129.84,-461.84 -183.28,-556.15l-152.38 57.97c-140.86,-160.04 110.19,-289.85 -181.34,-249.95l-48.69 160.33c-131.58,-98 36.08,-80.09 -161.23,-192.4 -159.26,-90.63 -126.19,9.99 -264.63,-61.33 -79.47,-40.97 -217.49,-79.89 -263.95,-122.21 -120.27,-109.54 13.03,-117.75 -221.46,-161.21 -47.98,4.98 -90.5,89.24 -294.99,142.62l-64.18 166.24 -227.83 50.95c-40.09,104.59 -9.47,60.91 -14.45,182.45 -368.77,283.8 -178.31,93.98 -441.32,129.58l-84.57 354.38c-403.07,92.78 -65.57,194.82 -463.5,118.33 15,-129.46 44.52,-86.52 27.26,-259.33 -106.63,-42.74 -144.49,-34.27 -188.85,-146.1 -35.27,-89.01 -35.3,-187.78 -35.3,-305.69 -221.53,-70.42 18.78,-85.06 -239.41,-83.57 -20.85,-79.05 5.4,-50.47 -66.09,-99.52 -55.89,23.34 -165.3,41.22 -245.42,36.05 -177.53,366.89 -193.11,273.2 -417.94,313.84l2.07 189.26 -169.15 142.55c-279.11,-124.7 -196.19,4.04 -358,53.92 -99.58,30.72 -247.53,3.14 -355.67,240.93 -198.19,31.27 -75.24,-35.95 -192.05,112.97 -252.76,-199.03 -180.47,88.52 -390.97,-137.86 -4.27,-4.59 -8.76,-11.64 -13.26,-15.94 -4.36,-4.17 -10.41,-9.64 -15,-13.39 -170.58,-140.21 -166.89,-43.16 -280.79,-36.98 -69.03,3.72 -111.32,-1.43 -153.54,13.03 -73,-50.02 -65.6,-64.31 -108.02,-144.62 -104.94,40.45 -30.91,43.36 -110.73,55.29 -40.41,6.04 -56.06,-13.36 -129.23,-13.84l-48.91 128.13 -163.47 -23.64c55.16,269.93 187.3,261.56 156.94,627.57 -20.53,247.24 10.28,102.36 -101.3,310.22 -254.67,474.52 -127.38,248.94 -269.02,356.9 -25.48,19.43 -65.44,88.23 -102.17,123.08 -135.04,128.19 -176.23,54.51 -305.62,35.82 -108.5,-15.71 -231.26,40.93 -308.34,114.94 -71.84,68.93 -77.75,53.15 -127.35,93.37 -44.52,36.11 -45.87,73.33 -90.94,128.42 -137.8,29.61 -89.56,-8.73 -177.82,-4.08 -74.62,3.92 -74.07,44.3 -155.87,34.21 -144.87,-17.85 -408.53,-199.8 -474.23,-404.56 -45.19,-140.92 -76.98,-400.22 -379.27,-254.44 -46.49,150.11 -173.65,179.28 -307.46,256.03 -108.31,62.14 -233.63,164.89 -295.96,247.26 61.07,71.42 65.66,80.51 90.82,173.56 -160.75,33.59 -188.39,75.97 -241.93,227.83 -79.93,226.7 -128.68,67.51 -162.14,314.19 71.84,66.47 102.2,113.68 160.36,168.38 144.03,34.24 320.04,31.59 417.55,156.77 -53.93,173.23 -239.15,56.84 -222.69,252.08 108.08,36.15 195.6,-1.06 229.35,139.19 -31.26,31.46 -253.21,137.6 -299.12,210.86 -27.03,123.02 -29.23,281.08 6.91,406.85l193.44 66.86c8.73,265.43 -76.92,179.89 -102.94,382.73l220.82 213.03c-160.56,164.79 -103.27,44.52 -146.75,301.74l128.29 78.53c-20.08,238.31 -105.76,48.66 -181.86,314.23 -56.32,196.6 -71.62,238.43 -33.69,450.75 42.8,239.77 198.96,462.23 399.64,578.3 -15.91,119.33 -66.34,117.2 -43.58,239.89 18.94,102.14 48.75,92.63 48.04,226.26 -138.31,199.38 -119.14,92.49 -83.93,306.98 18.33,111.63 -82.77,228.93 -98.12,339.47l181.5 -152.93c301.61,32.33 236.82,15.68 410.21,-223.56 128.61,-10.93 198.19,-26.55 295.99,-115.88 143.13,-130.77 -2.13,-100.51 223.18,-158.77 254.54,-65.83 603.65,-547.1 993.01,-587.74 52.76,-5.5 506.65,34.04 618.84,155.86 -42.87,146.36 -105.72,225.51 -108.76,384.35l457.8 125.93c159.2,-86.71 163.89,-224.99 435.4,-166.73 112.12,24.05 166.21,9.99 238.25,92.82 78.27,89.95 247.36,233.69 361.55,260.59 157.26,37.02 83.38,31.94 195.63,110.5 23.38,16.36 196.64,99.45 220.73,105.56 141.09,35.83 33.91,-54.38 175.07,77.56 247,13.91 218.1,-59 405.59,-70.19 418.91,489.46 487.06,293.31 514.73,766.79 110.8,24.25 165.21,68.06 264.53,36.92 96.54,-30.26 143.62,-95.08 207.05,-98.31 175.07,-8.83 145.88,60.78 248.72,60.04 136.66,-1.01 94.92,-54.16 208.66,75.13 127.74,-22.27 200,35.99 376.43,37.51 77.82,87.94 22.11,45.45 125.96,97.18 103.85,51.73 45.81,35.92 103.88,85.23 114.26,97.09 119.56,-27.19 205.72,206.82 -51.73,100.77 -73.16,222.17 -155.83,282.28 -106.57,77.46 -157.58,72.67 -168.64,234.49 -35.89,18.75 -6.76,10.12 -61.4,23.7 -0.87,0.23 -57.61,9.44 -68.86,11.73l-43.39 157.07c27.8,274.36 129.1,194.21 -253.18,236.92 -49.27,100 -78.76,200.25 -83.54,313.57 -12.94,307.24 -44.39,105.79 -45.85,300.55 5.95,1.1 10.51,2.13 13.93,3.1 4.43,-1.87 10.87,-4.1 19.92,-6.75 4.66,-1.36 44.68,-20.27 54.12,-23.83 40.06,160.94 75.59,-5.37 41.81,222.05 200.96,71.87 45.87,-0.59 192.98,144.22 52.41,51.54 134.79,108.34 166.28,160.43 26.22,248.01 -193.63,159.07 184.8,392.43 76.98,47.46 340.96,213.64 384.38,263.14l62.46 -75.27c348.37,-629.28 288.17,-330.03 448.43,-501.83 55.54,-59.56 97.35,-131.07 156.03,-195.93 -151.86,-282.54 -87.33,-607.85 -23.05,-869.63 35.43,-144.33 13.09,-176.69 38.18,-295.47l270.54 -1017c56.61,-167.5 15.68,-131.55 -32.07,-284.73 -62.92,-201.78 -77.63,-688.65 -98.25,-893.85 -27.29,-271.45 -98.29,-252.51 -35.15,-553.02 27.94,-132.82 50.86,-439.54 105.14,-519.98 -33.65,-71.12 -31.88,-76.13 -110.34,41.26l-50.37 -99.45c114.09,-44.39 24.63,-9.05 105.43,-19.24l-17.3 -104.43c-58.16,-51.89 -61.98,-33.49 -82.64,-130.74 5.95,-4.37 12.87,-20.34 15.42,-15.78 2.56,4.53 11.84,-12.64 15.01,-16.13 3.16,-3.46 8.92,-11.77 14.58,-16.46l1.03 -5.72 -58.84 -75.78 -72.13 -38.19c64.14,-56.32 72.71,-50.3 124.83,39.03 4.98,5.56 13.61,4.49 17.17,14.42 0.42,1.19 0.84,2.36 1.22,3.45 7.38,1.91 19.89,8.96 40.09,24.64l32.08 -198.35c-54.38,-75.43 -28.42,-68.28 -49.47,-115.55 -33.72,-75.72 4.46,-13.51 -39.02,-58.9 -52.09,141.28 36.05,95.56 -83.51,142.41 49.72,-110.31 1.68,-110.12 70.96,-184.32l-11.12 -72.13c19.98,-113.12 -0.77,-45.32 38.15,-60.52 2.04,-6.63 3.36,-12.25 4.24,-16.94 2.62,3.94 6.46,8.18 11.99,12.42l58.36 -5.79c13.13,-104.27 4.43,-138.41 106.56,-176.88l38.8 -65.44c-91.17,-74.69 -55.09,-2.01 -66.22,-111.77l156.91 -83.64c20.72,-83.44 57.09,-131.1 -12.1,-160.91l-87.71 -11.96 -90.33 -153.31 94.27 -107.89c-8.5,99.77 -56.35,123.99 46.5,208.24 124.24,-82.18 22.63,-70.38 116.35,-191.04l5.44 -99.39c87.16,31.72 87.94,44.98 86,132.3l169.96 31.91 5.11 90.75c31.58,219.3 12.02,93.6 -37.25,271 234.95,-49.92 307.69,-176.72 436.18,-350.76 56.7,-76.85 127.93,-122.56 179.46,-202.87 59.33,-92.43 48.6,-123.76 133.17,-224.93 144.88,-173.26 485.06,-780.27 509.47,-995.62 43.52,-89.85 27.9,-33.5 9.51,-68.32l-28.81 -6.88c-181.02,100.26 -94.24,-45.69 -231.75,79.11 -342.18,-157.61 -104.91,-101.91 -255.96,-179.6 -29.58,-15.22 -241.8,-16.26 -116.52,-236.69 -68.05,-122.73 -36.14,-17.36 -98.93,-102.62 -43.81,-59.45 -22.34,-89.55 -49.3,-143.64 -73.46,-147.46 -282.61,-179.83 -94.09,-451.24 103.2,-8.96 161.56,16.32 246.62,56.96l220.17 -111.86c-65.72,-154.9 -70.83,-58.75 -72.93,-220.76 25.86,-126.86 78.43,-189.49 89.29,-338.76z"/>
  <path class="fil0" d="M12169.53 11658.2c243.97,-35.5 377.59,-206.43 671.09,37.6 50.24,41.8 115.32,63.63 191.65,105.66 119.4,65.73 65.6,63.33 133.95,143.9 53.19,62.69 111.19,62.3 196.73,100.36l48.34 148.94c121.69,-73.13 42.55,-9.18 139.93,-29.9 54.31,-82.77 36.95,-118.62 124.92,-176.08 41.51,-27.12 69.48,-30.35 89.59,-41.99 145.46,-84.1 165.44,-226.09 175.72,-241.19 11.93,-17.46 59.07,-21.05 90.23,-195.02l-165.6 -144.78c-3.07,-195.15 0.85,-97.18 -70.22,-217.84 -72.35,-122.83 56.71,-147.46 87.78,-187.36 35.05,-44.97 4.82,-303.03 125.28,-503.16l-80.47 -58.65c67.18,-128.61 72.29,-272.1 220.11,-423.31 102.29,8.7 79.98,29.39 144.1,40.58 88.36,-66.31 30.68,-92.76 141.93,-199.42 72,-68.99 103.72,-135.43 126.67,-230.61 63.37,-262.66 143.36,-197.77 247.01,-434.72 178.08,-406.95 209.05,-568.18 722.53,-687.13l10.41 -42.9c-31.14,-281.25 -491.37,-75.4 -582.9,-485.8 -382.44,-105.82 -445.84,-452.57 -646.35,-586.71 -108.21,-72.35 -109.09,-134.56 -160.65,-248.62 -229.49,-52.12 -218.66,-37.25 -391.98,-182.7 -65.99,-55.39 -103.72,-51.67 -160.46,-113.22 -83.96,-91.18 -15.84,-84.26 -136.5,-135.57 -162.95,-69.28 -205.07,-135.43 -338.5,-211.99 -61.79,-35.43 -130.88,-47.79 -193.15,-82.19 -53.83,-29.71 -115.32,-91.65 -156.8,-117.87 -135.14,-85.52 -63.17,19.82 -178.21,-62.72 -56.61,-40.61 -106.88,-89.63 -154.64,-122.89 -337.43,-235.11 -1037.88,-48.76 -1144.73,-44.59 -62.4,2.43 -140.51,11.54 -222.08,8.8l-46.36 49.66c-66.96,-19.24 -140.61,-36.25 -222.66,-38.7 133.13,243.12 -35.18,305.65 -132.98,533.97 38.28,56.29 57.26,44.1 110.51,72.97 -36.31,167.96 65.11,175.04 -100.94,195.93 65.89,76.46 -29.23,51.6 143.71,220.17l-35.73 158.84c106.86,137.15 74.49,47.49 63.47,218.26l135.92 7.63c0.03,116.78 19.78,284.13 6.82,380.02 -32.65,241.64 -207.92,180.44 -63.01,412.22 -81.86,118.72 -57.42,53.41 -76.5,208.53 -22.27,180.86 223.28,344.19 360.94,417.39 16.85,181.18 7.76,350.47 21.41,531.68 56.28,745.93 112.7,615.87 154.6,877.52 12.38,77.34 -21.76,131.94 11.28,220.11 50.02,133.39 66.12,16.07 73.69,229.13 208.3,59.94 395.3,75.2 348.43,314.74 -41.65,212.96 -125.45,361.1 -133.89,569.92 25.8,6.31 473.62,43.52 476.56,43.1z"/>
  <path class="fil0" d="M11505.71 12104.59c43,-202.16 85.62,-53.44 -14.16,-272.42 -70.7,-155.22 7.76,-194.44 147.3,-203.65 80.83,-387.87 219.66,-547.72 109.05,-782.73 -384.93,-79.92 -233.75,-51.34 -352.4,-280.05 -60.36,-116.29 -41.29,-115.06 -45.69,-236.98 -3.23,-89.4 -231.45,-615.77 -156.93,-1414.83 -231.91,-196.47 -534.01,-329.16 -307.88,-666.85l-67.61 -136.76c204.53,-291.69 122.6,-338.41 126.54,-627.9l-139.37 5.86c3,-155.51 71.48,-136.6 -49.31,-246.91l24.64 -170.97c-76.66,-42.13 -158.94,-177.33 -133.82,-258 14.81,13.84 26.06,25.38 34.69,35.27l65.8 -91.01c-73.43,-183.96 -218.01,-26.64 -34.57,-328.41 170.16,-279.89 90.5,-158.65 -21.46,-343.16l-307.5 -31.91 -79.63 -11.16c-56.94,-92.4 -83.61,-112.18 -191.37,-137.76 -74.81,135.4 -21.17,120.53 35.63,231.04 -63.66,157.55 -62.85,86.52 -145.1,208.73 -77.08,114.51 -33.66,122.89 -187.91,136.17 -90.59,200.81 -113.83,245.56 -347.94,263.89 -135.72,10.67 -211.8,83.93 -306.92,211.54 -58.64,78.72 -14.25,153.05 -56.93,264.27 -53.02,138.21 -142.8,172.58 -176.3,240.54 -91.2,185.19 -18.43,76.33 -164.47,212.67 -35.56,266.37 60.59,175.56 117.49,356.64 -37.92,131.2 -32.46,127.87 -68.7,214.39 -57.48,137.27 73.97,304.62 77.34,312.15 73.23,164.92 63.4,355.96 41.19,519.49 -49.18,59.36 -115.46,96.35 -160.27,168.83 -76.85,124.31 -9.12,107.95 -139.83,180.02l-28.64 229.97c19.85,189.81 50.72,491.88 322.88,577.3 -10.79,326.92 -51.18,406.3 -172.77,609.82 -210.86,5.01 -319.88,15.32 -515.81,105.46 -364.66,-286.25 -364.72,-153.99 -622.98,-111.38 -197.6,32.59 -323.69,278.08 -405.98,437.95 -193.98,41.61 -373.29,194.15 -473.48,348.4 -247.07,-65.44 -157.32,59.49 -290.36,113.64 -385.74,157 -544.81,-57.67 -690.17,436.37l-45.42 129.45c-3.17,6.47 -13.13,27.32 -15.65,22.8 -2.68,-4.76 -11.64,15.42 -17.78,22.89 -0.71,95.24 34.92,197.05 -11.22,279.04l-110.76 218.2c-65.89,136.63 -78.7,327.61 -188.27,443.13 -103.29,108.86 -71.19,1.26 -131.94,173.74 -45.03,127.91 20.98,207.7 56.94,532.56 13.32,120.46 58.55,94.98 131.36,195.69 -15.39,130.52 -47.85,74.3 -46.79,244.94 1.07,174.62 -14.13,386.13 -73.65,519.33 -58.64,131.17 -44.9,144.58 -60.1,276.04l88.75 63.05 41.41 -16.59c100.49,-3.07 290.63,-17.62 366.09,43.26 123.01,99.19 115.74,397.38 294.43,524.69 79.54,56.65 194.89,81.54 290.27,155.84 136.08,-102.04 137.44,-26.06 281.21,-48.11 91.33,-80.28 -2.1,-75.62 131.91,-149.63 115.16,-63.62 76.24,-81.63 166.44,-130.94 209.92,-114.7 265.92,-27.22 464.72,-29.84 41.55,-30.74 277.04,-235.85 300.84,-266.98 36.08,-47.14 161.75,-300.23 201.16,-377.89 64.82,-127.8 12.54,-81.15 30.46,-195.53 21.33,-136.18 72.93,-51.86 -6.7,-210.67l-141.67 -348.75c-8.83,-135.01 -6.01,-7.92 14.1,-61.85 107.69,-37.92 45.97,-12.96 145.26,-3.01l59.84 -109.69c126.12,-30.33 56.13,-19.31 160.69,4.97 72.13,-90.59 -2.46,-58.13 109.08,-70.99l106.34 149.11c3.52,-2.04 245,-48.53 252.18,-49.21 111.57,-10.61 127.44,53.25 249.33,86.87l27.64 97.38c162.14,23.18 165.89,-55.87 322.44,37.25 110.99,-210.25 99.61,51.85 351.53,-314.03l245.58 -20.4 86.1 -102.85c150.15,2.69 114.42,-0.13 233.88,45.27 142.81,-159.88 115,-79.8 106.82,-331.94l277.63 -24.38c103.75,-140.06 124.41,-264.66 282.05,-347.36 190.43,-99.94 50.18,-46.66 149.21,-149.63 45.26,-47.07 65.6,-1.58 159.26,-171.35l143.51 8.44c42.78,-210.45 14.52,-9.25 131.43,-142.71 244.61,-279.28 299.67,-241.38 293.89,-557.87l-150.12 -109.31z"/>
  <path class="fil0" d="M5922.42 4419.93c0.84,3.23 2.2,3.91 0,0zm-2523.25 7293.17c-4.17,-4.24 -20.37,-15.13 0,0zm4994.45 -864.11c145.26,-44.87 193.56,-16.26 284.61,-43.61 193.21,-58 174.68,-376.88 210.31,-551.4 -77.63,-22.34 -90.72,-15.91 -142.35,-76.88 -114.42,-135.21 -242.55,-359.3 -145.52,-522.5 -3.43,-5.92 -15.49,-9.96 -22.73,-54.16l16.42 -197.76c124.25,-101.23 168.67,-250.02 294.37,-339.7 107.73,-709.92 -360.19,-604.13 -9.15,-1033.23 -150.14,-123.66 -208.01,-176.04 -143.77,-403.29 59.81,-41.74 81.67,-29.29 115.06,-74.72 35.41,-48.2 25.45,-94.47 56.52,-140.54 59.71,-88.59 112.48,-57.13 159.52,-217.2 50.66,-172.35 -29.84,-162.4 104.26,-285.74 91.99,-84.64 85.62,-151.05 161.79,-196.21 77.3,-38.86 276.46,-24.64 400.74,-92.86l25.34 -138.18c147.05,-66.41 102.46,-7.34 188.62,-130.16 56.94,-81.15 107.95,-110.77 147.5,-192.66l-82.74 -208.02 -23.34 31.04 -174.2 -14.13 -31.94 -2.91 -81.22 0.52 -40.6 31.3c-56.78,-60.3 -42.84,-79.73 -96.48,-84.32 -406.75,-121.37 -375.62,-206.34 -464.53,-252.38 -69.54,-36.05 -74.36,-0.8 -162.04,-55.73 -167.09,-104.66 -464.4,-219.3 -664.59,-178.96l-65.73 1.69c7.47,5.2 10.61,92.53 28.74,37.66 1.94,-5.82 7.47,15.46 13.68,21.08l-16.91 138.51c-161.43,-21.99 -6.47,-44.43 -119.49,-39.61 -36.54,1.55 19.39,28.84 -87.56,10.77l-113.02 44.23 -18.01 -87.59c-42.94,89.14 -47.4,59.36 -170.71,93.15l-1.58 77.3 -62.24 -59.1c-67.83,128.9 -108.95,-22.89 -131.17,150.47l-21.92 113.09c-62.65,22.44 1.1,29.94 -93.72,5.49l-82.32 85.55c-32.55,-54.8 -23.6,-4.69 19.01,-86.9 -117.71,-18.95 -49.79,-16.75 -94.47,21.66l-32.23 52.83 -126.58 -76.4 -10.79 114.16 -82.93 165.08 -74.78 68.02c-84.48,60.69 -57.91,49.73 -116.39,112.39 -99.19,106.33 -67.22,-15.33 -143.84,116.64 40.44,62.24 35.14,41.13 -20.86,80.48 -44.48,-79.89 -56.58,-99.42 7.21,-171.1 76.76,-23.96 90.3,-63.82 130.78,-143.64 -3.98,-107.41 7.92,22.72 -58.78,-95.8l32.4 -89.98c56.35,-175.2 33.91,-214.8 127.09,-403.9l-119.3 13.57c21.6,-42.48 77.53,-75.75 119.4,-136.79l75.88 -10.57 -67.57 -118.59c145.06,-54.06 37.53,20.98 215.03,3.33 32.72,-119.82 11.7,-255.83 -115.58,-313.15l-166.44 146.33 -29.04 209.56c-84.67,-137.34 6.21,9.19 -85.25,-47.17 20.21,-100.71 30.23,-31.91 27.51,-122.72 -145.1,-30.43 -20.92,58.93 -149.56,-12.32l158.32 -64.11 11.35 3.52c87.91,-136.7 -1.87,-49.4 129.39,-161.49l-27.42 -70.58 117.72 -67.09 0.68 -72.52c-59.23,-36.04 -47.17,-29.32 -109.25,-38.89l-6.37 -89.13 -46.68 20.65c-35.66,-16.71 -79.08,42.62 -19.01,-38.89l-48.6 8.63 -14.93 -10.34 -40.8 -28.32 -28.33 -1.59 -41.09 26.06 1.07 9.18c-0.49,-0.84 -36.92,8.8 -38.64,-82.51 -0.09,-6.56 17.91,-37.31 26.68,-51.27l2.36 -19.85 1.58 -44.69 -192.4 -5.52c22.6,-36.63 19.72,-7.7 1.39,-68.38l55.48 -37.02 4.11 -19.53c49.2,-132.49 76.01,-90.98 -4.56,-115.78l-31.98 47.56 10.28 95.44c-110.7,67.87 -16.68,28.58 -114.22,33.37 -6.82,-58.42 21.95,-30.91 -3.04,-148.98 -129.16,11.44 -149.89,18.39 -233.2,96.47 -22.05,114.68 61.98,222.08 -166.47,212.25l31.42 -197.25 -32.1 -21.2c-23.15,10.37 -23.25,23.76 -21.76,29.42 -2.36,-4.21 -8.76,-13.61 -24.18,-30.78l60.49 -114.49c67.5,-70.54 85.09,-67.41 24.67,-186.51l-58.2 143.51c-74.43,108.44 -35.27,-4.97 -76.24,146.75 -29.29,-21.85 -72.84,-48.56 -119.07,-76.62l74.33 -74.78c-141.22,-68.09 46.88,-90.88 -159.04,-127.22l-35.46 63.56c-87.62,-30.33 -27.36,44.87 -72.94,-80.67 -27.26,-83.25 69.51,-73.45 -77.24,-60.49l-51.86 92.83 -142.48 -122.44 0.03 -1.42 -58.52 -50.18 -51.5 -3.59c-14.22,55.29 17.27,24.8 -76.59,38.86 -103.91,80.12 -42.48,70.71 -36.73,146.14 4.14,53.79 -52.28,108.18 -62.33,188.58 -7.15,57.16 3.42,131.04 -15.36,206.47 -42.87,171.93 -59.29,11.83 -129.13,146.49 83.12,32.46 43.42,0.84 125.64,49.66 -128.45,797.5 -280.86,283.5 -261.98,880.14 -15.06,11.8 -256.09,231.58 -275.78,252.6l92.11 134.17c-115.03,196.02 -31.23,77.08 -91.59,284.96 -62.56,215.49 -312.12,395.63 -316.26,401.42 -46.2,64.44 -10.48,63.05 -44.58,144.29 -28.71,68.32 -38.9,44.2 -67.61,102.52 -44.29,90.05 -24.5,224.93 -56.06,324.25 -54.61,171.9 -272.58,218.01 -321.85,396.41 -59.07,213.77 -37.47,83.86 -130.88,218.75 -45.78,66.15 -86.29,166.21 -144.64,239.89 -99.36,125.48 -109.19,79.34 -230.1,83.35 -138.06,4.53 -1138.85,906.1 -1160.29,963.2 94.99,-10.74 23.09,-13.55 88.91,-37.57 43.81,-16.01 29.71,1.39 113.35,-11.74l70.68 -143.38c285.57,-97.35 210.54,47.33 424.73,84.64 235.01,40.9 247.29,-179.6 337.21,141.35 608.01,121.79 380.46,293.98 452.34,473.29 69.41,173.16 46.42,118.13 40.7,301.22 -11.64,372.32 93.63,-71.77 7.99,518.1 -27.97,192.86 -94.57,306.95 -89.37,529.16 10.83,460.07 -523.14,193.99 -149.62,573.52 100.22,-33.92 72.74,-59.69 163.49,-5.53 -16.94,107.56 17.33,26.67 -87.19,109.82 6.43,4.76 15.87,9.32 20.75,12.1 4.72,2.68 14.65,8.18 20.21,11.47 33.14,19.6 37.02,20.34 33.79,17.11 1.06,0.77 2.23,1.61 3.49,2.55 38.34,28.26 0.55,-1.68 38.21,40.06 100.39,111.15 122.54,66.44 254.51,291.4 39.31,66.95 256.03,346.97 317.97,406.2 225.51,-122.66 184.61,-119.79 465.37,-181.6 137.89,72.61 185.42,108.34 152.83,284.99 -73.13,396.31 -71.35,182.38 -9.21,342.58 -158.78,10.02 -310.51,-32.98 -408.21,116.52 -102.23,156.35 -72.78,275.07 -87.97,433.3 -89.04,75.72 -178.7,122.11 -198,247.78 115.13,48.27 161.4,-5.08 247.27,115.84 65.24,91.85 35.14,169.48 70.54,294.34l325.61 192.11c-49.15,158.52 -137.12,161.3 -160.33,246.39 34.88,81.54 164.27,125.48 230.77,194.86 32.17,222.56 15.46,202.39 173.46,372.16l242.96 6.59 132.79 100.39c74.07,-257.51 135.14,-502.26 135.37,-784.83 0.13,-155.67 45.71,-126.28 58,-256.28 -89.72,-77.18 -119.56,-34.34 -134.53,-179.73 -57.19,-555.6 -152.18,-461.85 69.87,-725.83 116.39,-138.37 115.26,-322.33 297.63,-658.83 19.5,-35.99 27.48,-79.24 34.56,-125.03 19.86,-128.19 -49.62,-40.02 21.02,-141.73 59.59,-516.16 235.21,-537.99 688,-637.6 167.41,-36.82 78.3,-80.92 194.34,-133.14 110.18,-49.59 123.82,21.86 239.67,-83.86 156.35,-142.68 143.06,-182.7 372.54,-253.9 70.55,-54.73 178.08,-360.68 371.35,-432.32 86.42,-32.04 94.73,-11.51 165.44,-26.22 63.63,-13.23 206.08,-135.76 439.05,50.69 113.16,90.56 105.59,62.69 250.08,18.04z"/>
 </g>
</svg>
